<?xml version="1.0" encoding="utf-8"?>
<!-- Generator: Adobe Illustrator 25.2.0, SVG Export Plug-In . SVG Version: 6.00 Build 0)  -->
<svg version="1.1" id="Layer_1" xmlns="http://www.w3.org/2000/svg" xmlns:xlink="http://www.w3.org/1999/xlink" x="0px" y="0px"
	 viewBox="0 0 16 16" style="enable-background:new 0 0 16 16;" xml:space="preserve">
<style type="text/css">
	.st0{fill-rule:evenodd;clip-rule:evenodd;fill:#FFFFFF;}
</style>
<path class="st0" d="M10,12.5c0,0.3-0.2,0.5-0.5,0.5h-8C1.2,13,1,12.8,1,12.5v-9C1,3.2,1.2,3,1.5,3h8C9.8,3,10,3.2,10,3.5v2
	C10,5.8,10.2,6,10.5,6S11,5.8,11,5.5v-2C11,2.7,10.3,2,9.5,2h-8C0.7,2,0,2.7,0,3.5v9C0,13.3,0.7,14,1.5,14h8c0.8,0,1.5-0.7,1.5-1.5
	v-2c0-0.3-0.2-0.5-0.5-0.5S10,10.2,10,10.5V12.5z"/>
<path class="st0" d="M15.9,8.4c0.2-0.2,0.2-0.5,0-0.7c0,0,0,0,0,0l-3-3c-0.2-0.2-0.5-0.2-0.7,0s-0.2,0.5,0,0.7l2.1,2.1H5.5
	C5.2,7.5,5,7.7,5,8c0,0.3,0.2,0.5,0.5,0.5h8.8l-2.1,2.1c-0.2,0.2-0.2,0.5,0,0.7s0.5,0.2,0.7,0L15.9,8.4z"/>
</svg>
