<?xml version="1.0" encoding="utf-8"?>
<!-- Generator: Adobe Illustrator 25.2.0, SVG Export Plug-In . SVG Version: 6.00 Build 0)  -->
<svg version="1.1" id="Capa_1" xmlns="http://www.w3.org/2000/svg" xmlns:xlink="http://www.w3.org/1999/xlink" x="0px" y="0px"
	 viewBox="0 0 524.9 524.9" style="enable-background:new 0 0 524.9 524.9;" xml:space="preserve">
<style type="text/css">
.st0{fill:#FFFFFF;}
</style>
<g>
	<g>
		<path class="st0" d="M226.4,249.5c0-7-2.7-13.4-7.8-18.6L61.8,74.2c-5.1-5.1-11.6-7.9-18.6-7.9c-7,0-13.5,2.7-18.6,7.8L7.8,91
			C2.7,96.1,0,102.5,0,109.5c0,7,2.7,13.5,7.8,18.6l121.4,121.4L7.8,370.9C2.7,376.1,0,382.5,0,389.5c0,7,2.7,13.4,7.8,18.5
			l16.8,16.8c5.1,5.2,11.6,7.9,18.6,7.9c7,0,13.5-2.7,18.6-7.8l156.8-156.8C223.7,262.9,226.4,256.5,226.4,249.5z"/>
		<path class="st0" d="M498.9,385h-323c-7.2,0-13.6,2.6-18.6,7.5c-4.9,4.9-7.5,11.3-7.5,18.5v21.5c0,7.3,2.6,13.7,7.5,18.5
			c4.9,4.9,11.3,7.5,18.6,7.5h323c7.2,0,13.7-2.6,18.5-7.5c4.9-4.9,7.5-11.3,7.5-18.6V411c0-7.2-2.6-13.6-7.5-18.6
			C512.5,387.5,506.1,385,498.9,385z"/>
	</g>
</g>
</svg>
