<?xml version="1.0" encoding="utf-8"?>
<!-- Generator: Adobe Illustrator 25.2.0, SVG Export Plug-In . SVG Version: 6.00 Build 0)  -->
<svg version="1.1" id="Capa_1" xmlns="http://www.w3.org/2000/svg" xmlns:xlink="http://www.w3.org/1999/xlink" x="0px" y="0px"
	 viewBox="0 0 497.9 497.9" style="enable-background:new 0 0 497.9 497.9;" xml:space="preserve">
<style type="text/css">
	.st0{fill:#FFFFFF;}
</style>
<g>
	<g>
		<path class="st0" d="M477.5,228.6H424c-9.8-80-74-143.6-154.7-153.1V20.3c0-11.2-9.1-20.3-20.3-20.3c-11.2,0-20.3,9.1-20.3,20.3
			v55c-81.4,8.9-146.3,72.8-156.1,153.3H20.3C9.1,228.6,0,237.7,0,248.9c0,11.2,9.1,20.3,20.3,20.3h51.9
			c9,81.5,74.3,146.4,156.4,155.5v52.8c0,11.2,9.1,20.3,20.3,20.3c11.2,0,20.3-9.1,20.3-20.3v-53c81.4-9.6,146.1-74.2,155-155.3
			h53.3c11.2,0,20.3-9.1,20.3-20.3S488.8,228.6,477.5,228.6z M269.3,383.4v-67c0-11.2-9.1-20.3-20.3-20.3
			c-11.2,0-20.3,9.1-20.3,20.3v67.2c-59.6-8.6-106.8-55.3-115.3-114.3h68.2c11.2,0,20.3-9.1,20.3-20.3s-9.1-20.3-20.3-20.3h-67.9
			c9.4-58,56.1-103.8,115-112.2v65.1c0,11.2,9.1,20.3,20.3,20.3c11.2,0,20.3-9.1,20.3-20.3v-64.9c58.2,9,104.2,54.4,113.6,112h-66.5
			c-11.2,0-20.3,9.1-20.3,20.3c0,11.2,9.1,20.3,20.3,20.3h66.8C374.6,327.8,328.2,374.3,269.3,383.4z"/>
	</g>
</g>
</svg>
