<?xml version="1.0" encoding="utf-8"?>
<!-- Generator: Adobe Illustrator 25.2.0, SVG Export Plug-In . SVG Version: 6.00 Build 0)  -->
<svg version="1.1" id="Layer_1" xmlns="http://www.w3.org/2000/svg" xmlns:xlink="http://www.w3.org/1999/xlink" x="0px" y="0px"
	 viewBox="0 0 1280 1194" style="enable-background:new 0 0 1280 1194;" xml:space="preserve">
<style type="text/css">
	.st0{fill:#FFFFFF;}
</style>
<g transform="translate(0.000000,1194.000000) scale(0.100000,-0.100000)">
	<path class="st0" d="M3075,11863c-622-387-1140-833-1582-1363C568,9394,53,8046,4,6600l-7-200h2241h2242v45c0,234,89,587,206,815
		c160,313,417,597,695,766l60,36l-33,58c-196,345-2204,3819-2208,3819C3197,11938,3141,11905,3075,11863z"/>
	<path class="st0" d="M9534,11832c-33-59-533-927-1112-1929c-579-1003-1053-1827-1054-1832c-2-5,43-40,99-77
		c378-255,652-631,778-1069c34-118,62-286,71-419l7-106h2240h2240l-7,200c-68,1986-1022,3787-2631,4969c-147,108-552,373-568,371
		C9596,11940,9568,11891,9534,11832z"/>
	<path class="st0" d="M6210,7666c-470-85-824-366-995-790c-159-397-112-829,130-1197c63-95,239-271,335-334c224-148,452-218,715-218
		c165-1,230,9,380,54c207,64,367,161,526,319c144,143,236,288,304,478c237,664-121,1403-790,1630c-49,17-124,38-165,47
		C6548,7677,6306,7683,6210,7666z"/>
	<path class="st0" d="M5436,4731c-11-20-1530-2652-1843-3194c-206-356-376-654-379-661c-7-17,76-67,311-186
		c731-370,1474-583,2326-667c249-24,844-24,1098,1c845,81,1594,296,2326,666c235,119,318,169,311,186c-4,11-1949,3386-2168,3762
		l-60,103l-53-30c-82-47-251-116-363-149c-175-53-334-75-532-76c-320-1-588,60-864,199C5488,4714,5438,4735,5436,4731z"/>
</g>
</svg>
