<?xml version="1.0" encoding="utf-8"?>
<!-- Generator: Adobe Illustrator 25.2.0, SVG Export Plug-In . SVG Version: 6.00 Build 0)  -->
<svg version="1.1" id="Layer_1" xmlns="http://www.w3.org/2000/svg" xmlns:xlink="http://www.w3.org/1999/xlink" x="0px" y="0px"
	 viewBox="0 0 16 16" style="enable-background:new 0 0 16 16;" xml:space="preserve">
<style type="text/css">
	.st0{fill-rule:evenodd;clip-rule:evenodd;fill:#FFFFFF;}
</style>
<path class="st0" d="M8,14.9c0,0,0.1,0,0.1,0c0.1,0,0.2-0.1,0.3-0.1c0.2-0.1,0.5-0.3,0.9-0.5c0.9-0.6,1.6-1.4,2.3-2.2
	c1.5-2,2.8-5,2.3-9.2c0-0.2-0.2-0.3-0.3-0.4c-0.7-0.2-1.8-0.6-2.8-0.9C9.6,1.3,8.5,1.1,8,1.1C8,1.1,8,14.9,8,14.9z M5.1,0.6
	C6.2,0.3,7.3,0,8,0s1.8,0.3,2.9,0.6c1.1,0.3,2.2,0.7,2.9,0.9c0.6,0.2,1,0.7,1,1.3c0.6,4.5-0.8,7.8-2.5,10c-0.7,0.9-1.6,1.8-2.5,2.5
	c-0.3,0.2-0.7,0.4-1,0.6C8.5,15.9,8.2,16,8,16s-0.5-0.1-0.8-0.2c-0.4-0.2-0.7-0.4-1-0.6c-1-0.7-1.8-1.5-2.5-2.5
	c-1.7-2.2-3.1-5.5-2.5-10c0.1-0.6,0.5-1.1,1-1.3C3.1,1.1,4.1,0.8,5.1,0.6z"/>
</svg>
