<?xml version="1.0" encoding="utf-8"?>
<!-- Generator: Adobe Illustrator 25.2.0, SVG Export Plug-In . SVG Version: 6.00 Build 0)  -->
<svg version="1.1" id="Layer_1" xmlns="http://www.w3.org/2000/svg" xmlns:xlink="http://www.w3.org/1999/xlink" x="0px" y="0px"
	 viewBox="0 0 16 16" style="enable-background:new 0 0 16 16;" xml:space="preserve">
<style type="text/css">
	.st0{fill:#FFFFFF;}
</style>
<path class="st0" d="M8,4c0.3,0,0.5,0.2,0.5,0.5V6c0,0.3-0.2,0.5-0.5,0.5C7.7,6.5,7.5,6.3,7.5,6V4.5C7.5,4.2,7.7,4,8,4z M3.7,5.7
	c0.2-0.2,0.5-0.2,0.7,0l0.9,0.9c0.2,0.2,0.2,0.5,0,0.7s-0.5,0.2-0.7,0L3.7,6.4C3.5,6.2,3.5,5.9,3.7,5.7z M2,10
	c0-0.3,0.2-0.5,0.5-0.5h1.6c0.3,0,0.5,0.2,0.5,0.5s-0.2,0.5-0.5,0.5H2.5C2.2,10.5,2,10.3,2,10z M11.5,10c0-0.3,0.2-0.5,0.5-0.5h1.5
	c0.3,0,0.5,0.2,0.5,0.5s-0.2,0.5-0.5,0.5H12C11.7,10.5,11.5,10.3,11.5,10z M12.3,5.8c-0.1-0.1-0.4-0.2-0.5,0L7.5,9.3
	c-0.4,0.3-0.4,0.9-0.1,1.3C7.8,11,8.3,11,8.7,10.7c0,0,0.1-0.1,0.1-0.1l3.4-4.3C12.4,6.1,12.4,5.9,12.3,5.8L12.3,5.8z"/>
<path class="st0" d="M0,10c0-4.4,3.6-8,8-8c4.4,0,8,3.6,8,8c0,0.9-0.2,1.8-0.5,2.6c-0.4,1.3-1.8,1.6-2.9,1.3C11.3,13.5,9.5,13,8,13
	c-1.5,0-3.3,0.5-4.6,0.9c-1.1,0.4-2.5,0-2.9-1.3C0.2,11.8,0,10.9,0,10z M8,3c-3.9,0-7,3.1-7,7c0,0.8,0.1,1.6,0.4,2.3
	c0.2,0.6,0.9,0.9,1.7,0.6c1.3-0.4,3.3-1,4.9-1s3.6,0.5,4.9,1c0.8,0.2,1.5-0.1,1.7-0.6c1.3-3.6-0.6-7.6-4.3-8.9C9.6,3.1,8.8,3,8,3z"
	/>
</svg>
